PathFileType	4	(X/Y/Z)	../Python\walking\Walking09\task.trc
DataRate	CameraRate	NumFrames	NumMarkers	Units	OrigDataRate	OrigDataStartFrame	OrigNumFrames
200.000000	200.000000	6	30	mm	200.000000	417	668
Frame#	Time	CLAV			STRN			RASI			LASI			RTH1			RTH2			RTH3			RTB1			RTB2			RTB3			RHEE			RD5M			RTOE			LTH1			LTH3			LTB1			LTB3			LTOE			LD5M			LPSI			LTB2			LTH2			RPSI			PE02			T10			PE03			PE01			C7			LHEE			RBAK			
		X1	Y1	Z1	X2	Y2	Z2	X3	Y3	Z3	X4	Y4	Z4	X5	Y5	Z5	X6	Y6	Z6	X7	Y7	Z7	X8	Y8	Z8	X9	Y9	Z9	X10	Y10	Z10	X11	Y11	Z11	X12	Y12	Z12	X13	Y13	Z13	X14	Y14	Z14	X15	Y15	Z15	X16	Y16	Z16	X17	Y17	Z17	X18	Y18	Z18	X19	Y19	Z19	X20	Y20	Z20	X21	Y21	Z21	X22	Y22	Z22	X23	Y23	Z23	X24	Y24	Z24	X25	Y25	Z25	X26	Y26	Z26	X27	Y27	Z27	X28	Y28	Z28	X29	Y29	Z29	X30	Y30	Z30	

418	2.085	1302.414306640625	1413.04638671875	173.2652435302735	1352.025756835938	1218.850341796875	188.5117645263672	1307.591796875	1016.5478515625	338.339569091797	1342.360229492188	1000.290649414063	64.39280700683597	1218.498779296875	757.306823730469	362.7934875488282	1157.41943359375	747.1225585937502	358.2009887695314	1166.93212890625	700.5140380859377	341.3294677734376	1082.7314453125	370.5275878906251	275.5360412597657	1029.175048828125	339.3414611816407	271.7053222656251	1054.645874023438	297.4014282226564	260.4376831054689	905.211059570313	56.80504226684573	157.8538970947266	1049.815795898438	16.97761917114259	254.9187774658204	1115.860107421875	30.22485733032228	216.3524475097657	1336.187744140625	691.5224609375002	28.01797485351564	1384.6923828125	630.2135009765627	40.64463043212892	1472.431030273438	358.0840148925782	72.28235626220706	1523.587158203125	298.322479248047	81.25329589843753	1756.944335937501	123.0219497680665	153.1858367919922	1732.023559570313	84.72986602783206	117.5736160278321	1164.142944335938	1054.624389648438	127.4959869384766	1462.884399414063	311.3513488769532	86.08222198486331	1326.44580078125	647.6346435546877	49.91033935546878	1155.289306640625	1059.795654296875	227.4642944335939	1152.351318359375	1046.422729492188	204.4821166992189	1126.657592773438	1251.333862304688	174.8353271484376	1155.041137695313	1043.506958007813	153.4925537109376	1168.557006835938	1104.282836914063	175.9355010986329	1191.388427734375	1507.628051757813	159.0634918212891	1568.646484375001	40.65977859497072	168.9959716796876	1168.290161132813	1426.60693359375	336.4728393554689	
419	2.09	1308.930053710938	1412.146850585938	173.2725982666016	1358.602661132813	1217.881958007813	188.6306304931641	1314.264038085938	1015.57177734375	338.5936889648439	1349.181030273438	999.4270629882817	64.38496398925784	1223.8544921875	756.738952636719	363.1483154296876	1162.711059570313	746.904479980469	358.304412841797	1171.988525390625	700.2334594726565	341.5421447753907	1085.834350585938	370.6789855957032	275.7538146972657	1031.992919921875	339.9664306640626	271.8845214843751	1057.097778320313	297.7840881347657	260.6552124023439	905.5166625976567	58.47261047363284	158.2558135986329	1049.809692382813	16.96233558654786	254.9660186767579	1115.895385742188	30.1907253265381	216.4008941650392	1342.867553710938	691.063415527344	28.38620567321779	1391.331298828125	629.7805786132815	41.01847076416017	1479.089721679688	357.3188476562501	72.70068359375003	1530.303588867188	297.6249084472657	81.67349243164065	1764.061035156251	122.7442932128907	153.8963165283204	1739.151611328126	84.25579071044925	118.3842163085938	1170.671142578125	1053.635864257813	127.4364013671876	1469.635009765625	310.6570129394532	86.6996994018555	1333.072875976563	647.129333496094	50.18504714965823	1161.9775390625	1058.744262695313	227.3912048339845	1158.980346679688	1045.377319335938	204.4304809570314	1133.187255859375	1250.37841796875	174.8501281738282	1161.679809570313	1042.493408203125	153.4350738525391	1175.24267578125	1103.2939453125	175.9046630859376	1197.836303710938	1506.726928710938	159.0444488525391	1575.774780273438	40.19668579101564	170.0120391845704	1174.720336914063	1425.61083984375	336.4896240234376	
420	2.095	1315.467895507813	1411.291748046875	173.2562866210938	1365.226196289063	1216.965087890625	188.7335052490235	1321.03369140625	1014.609741210938	338.8294067382814	1356.042236328125	998.6287231445317	64.35294342041018	1229.311889648438	756.1931762695315	363.4917297363282	1168.105834960938	746.7044067382815	358.3985595703126	1177.152709960938	699.9712524414065	341.7473144531251	1089.024047851563	370.8624877929689	275.9922180175782	1034.896362304688	340.6354064941407	272.0931091308595	1059.625366210938	298.2077026367189	260.8997802734376	905.8519897460942	60.24590301513675	158.7247772216797	1049.816162109375	16.94541931152344	255.0270996093751	1115.932861328125	30.15736389160158	216.4531555175782	1349.84619140625	690.761657714844	28.75839614868165	1398.347534179688	629.5581054687502	41.3706512451172	1485.534057617188	356.5607910156251	73.16231536865237	1536.654541015626	296.815155029297	82.10453796386722	1770.291992187501	121.7913284301758	154.5288085937501	1745.307006835938	83.25039672851565	119.0728988647462	1177.232421875	1052.678100585938	127.440544128418	1476.057495117188	309.994354248047	87.36319732666018	1340.050048828125	646.7724609375002	50.44243240356448	1168.74267578125	1057.724243164063	227.3497161865236	1165.676513671875	1044.359619140625	204.4225158691407	1139.765014648438	1249.4443359375	174.8611907958985	1168.3759765625	1041.515991210938	153.4150390625001	1181.992553710938	1102.342895507813	175.9100799560547	1204.297607421875	1505.8564453125	158.9985656738282	1581.893676757813	39.50753784179689	170.8864135742188	1181.16748046875	1424.651733398438	336.4803161621095	
421	2.1	1322.028198242188	1410.485595703125	173.2159729003907	1371.898315429688	1216.10595703125	188.8191986083985	1327.903198242188	1013.663940429688	339.0448303222657	1362.948120117188	997.9016113281255	64.29793548583987	1234.8798828125	755.6685791015627	363.8191223144532	1173.613525390625	746.519958496094	358.4823303222657	1182.436157226563	699.7247314453127	341.9412231445314	1092.306030273438	371.0789794921876	276.2487792968751	1037.891235351563	341.3500366210939	272.328582763672	1062.23388671875	298.6739196777345	261.1694641113282	906.222290039063	62.13027954101565	159.2570037841797	1049.833984375	16.92866134643555	255.0982055664064	1115.972534179688	30.12543296813966	216.5097045898439	1357.109497070313	690.594421386719	29.11750984191896	1405.72314453125	629.5164184570315	41.68388748168947	1491.773193359375	355.8071899414064	73.66386413574222	1542.659301757813	295.8973999023439	82.54874420166018	1775.677001953126	120.1771392822266	155.0812377929688	1750.529052734376	81.72430419921878	119.6433105468751	1183.838500976563	1051.755493164063	127.5088806152344	1482.16650390625	309.3557739257814	88.061393737793	1347.363891601563	646.5474853515627	50.68082046508792	1175.587890625	1056.741333007813	227.3405761718751	1172.44580078125	1043.375854492188	204.4572753906251	1146.392211914063	1248.53515625	174.8704681396485	1175.1357421875	1040.581420898438	153.4319458007813	1188.81005859375	1101.435791015625	175.9526977539063	1210.7724609375	1505.019653320313	158.9263305664063	1587.049072265626	38.60465621948244	171.6164550781251	1187.633056640625	1423.734252929688	336.4455566406251	
422	2.105	1328.611083984375	1409.732543945313	173.1513824462891	1378.62060546875	1215.310424804688	188.8866577148438	1334.874267578125	1012.736694335938	339.2384033203126	1369.902465820313	997.2510375976567	64.22177886962893	1240.567504882813	755.1638183593752	364.1263427734376	1179.24365234375	746.348571777344	358.5547790527345	1187.849487304688	699.490905761719	342.1206359863282	1095.686157226563	371.3289489746095	276.5212402343751	1040.983642578125	342.1115722656251	272.5884094238282	1064.928833007813	299.1840209960939	261.4625244140626	906.632934570313	64.13077545166018	159.8478393554688	1049.862060546875	16.91376113891602	255.175018310547	1116.014526367188	30.0956325531006	216.5711822509767	1364.633544921875	690.5366821289065	29.44923591613771	1413.425903320313	629.620788574219	41.94844436645509	1497.819091796875	355.0568847656251	74.20010375976565	1548.342285156251	294.8802490234376	83.00830841064456	1780.269042968751	117.9309768676758	155.5539245605469	1754.871826171876	79.69831085205081	120.1044387817383	1190.501220703125	1050.872924804688	127.6393814086915	1487.981079101563	308.7352905273439	88.78105926513675	1354.98681640625	646.4351806640627	50.89937210083011	1182.515502929688	1055.801025390625	227.3640594482423	1179.294067382813	1042.432250976563	204.5328216552736	1153.070434570313	1247.654174804688	174.8798217773438	1181.964477539063	1039.6962890625	153.4845123291016	1195.697875976563	1100.578491210938	176.0330200195313	1217.260986328125	1504.220092773438	158.8283843994141	1591.302246093751	37.51198577880861	172.2072448730469	1194.118408203125	1422.86279296875	336.3860778808595	
423	2.11	1335.216552734375	1409.036499023438	173.0624694824219	1385.394287109375	1214.583862304688	188.9351348876954	1341.947509765625	1011.830261230469	339.4087219238282	1376.90869140625	996.6818237304692	64.12688446044925	1246.382690429688	754.677429199219	364.4099121093751	1185.0048828125	746.187438964844	358.6151428222657	1193.402587890625	699.2666015625002	342.2827148437501	1099.171142578125	371.6122436523439	276.8077087402345	1044.18017578125	342.9210205078126	272.8701477050782	1067.716674804688	299.738983154297	261.7775878906251	907.0900878906255	66.25202941894534	160.4919128417969	1049.898681640625	16.90215682983399	255.2530975341798	1116.058959960938	30.06863021850587	216.6384429931642	1372.3857421875	690.562683105469	29.74314689636232	1421.410522460938	629.833923339844	42.16341400146486	1503.685546875	354.3103332519532	74.76428222656253	1553.732055664063	293.7764587402345	83.48506927490237	1784.135253906251	115.0957260131837	155.9502105712891	1758.403930664063	77.20275878906253	120.4700622558594	1197.232666015625	1050.035522460938	127.8274688720704	1493.525024414063	308.1287231445314	89.507926940918	1362.878051757813	646.4145507812502	51.09773635864261	1189.527587890625	1054.908935546875	227.4200592041017	1186.226928710938	1041.535278320313	204.646209716797	1159.800537109375	1246.804443359375	174.8909606933594	1188.867065429688	1038.867431640625	153.5707397460938	1202.658081054688	1099.776611328125	176.1510925292969	1223.763061523438	1503.46044921875	158.7054443359376	1594.728881835938	36.2641944885254	172.6704711914063	1200.624877929688	1422.04150390625	336.3026733398439	
